<svg xmlns="http://www.w3.org/2000/svg" width="1142.425" height="650.65" viewBox="0 0 1142.425 650.65"><g transform="translate(776 297.258)"><g transform="translate(-776 -246)" fill="#fff" stroke="rgba(112,112,112,0)" stroke-width="1"><rect width="568" height="140" rx="70" stroke="none"/><rect x="0.5" y="0.5" width="567" height="139" rx="69.5" fill="none"/></g><g transform="translate(-776 -24)" fill="#be24aa" stroke="rgba(112,112,112,0)" stroke-width="1"><rect width="568" height="140" rx="70" stroke="none"/><rect x="0.5" y="0.5" width="567" height="139" rx="69.5" fill="none"/></g><g transform="translate(-776 198)" fill="#fff" stroke="rgba(112,112,112,0)" stroke-width="1"><rect width="568" height="140" rx="70" stroke="none"/><rect x="0.5" y="0.5" width="567" height="139" rx="69.5" fill="none"/></g><g transform="translate(14 -246) rotate(90)" fill="#fff" stroke="rgba(112,112,112,0)" stroke-width="1"><rect width="584" height="140" rx="70" stroke="none"/><rect x="0.5" y="0.5" width="583" height="139" rx="69.5" fill="none"/></g><g transform="translate(357.249 -193.218) rotate(138)" fill="#fff" stroke="rgba(112,112,112,0)" stroke-width="1"><path d="M70,0H524a0,0,0,0,1,0,0V140a0,0,0,0,1,0,0H70A70,70,0,0,1,0,70v0A70,70,0,0,1,70,0Z" stroke="none"/><path d="M70,.5H523.063a.437.437,0,0,1,.437.437V139.063a.437.437,0,0,1-.437.437H70A69.5,69.5,0,0,1,.5,70v0A69.5,69.5,0,0,1,70,.5Z" fill="none"/></g><g transform="matrix(-0.669, -0.743, 0.743, -0.669, 262.385, 353.391)" fill="#fff" stroke="rgba(112,112,112,0)" stroke-width="1"><path d="M70,0H308a0,0,0,0,1,0,0V140a0,0,0,0,1,0,0H70A70,70,0,0,1,0,70v0A70,70,0,0,1,70,0Z" stroke="none"/><path d="M70,.5H307a.5.5,0,0,1,.5.5V139a.5.5,0,0,1-.5.5H70A69.5,69.5,0,0,1,.5,70v0A69.5,69.5,0,0,1,70,.5Z" fill="none"/></g></g></svg>