<svg xmlns="http://www.w3.org/2000/svg" width="1142.567" height="635.396" viewBox="0 0 1142.567 635.396">
  <g id="Logo" transform="translate(0 -28.86)" fill="#ffffff">
    <path d="M666.928,592.433V124.154a71.823,71.823,0,0,1,143.646,0V234.08L1013.269,47.7A70.784,70.784,0,0,1,1114.7,53.129c26.542,30.1,24.162,76.481-5.316,103.586L810.574,431.477V592.433a71.823,71.823,0,0,1-143.646,0ZM73.347,664.256a73.347,73.347,0,1,1,0-146.695h436.1a73.347,73.347,0,0,1,0,146.695Zm944.021-38.38L853.968,440.55l106.75-98.158,163.4,185.326c26.542,30.1,24.162,76.48-5.315,103.586a70.777,70.777,0,0,1-101.435-5.428ZM73.347,431.64a73.347,73.347,0,1,1,0-146.694h436.1a73.347,73.347,0,1,1,0,146.694Zm0-232.615a73.347,73.347,0,1,1,0-146.695h436.1a73.347,73.347,0,0,1,0,146.695Z" stroke="none"/>
    <path d="M 738.7506713867188 663.255859375 C 748.3123779296875 663.255859375 757.58740234375 661.3834228515625 766.3182373046875 657.690673828125 C 770.5146484375 655.9157104492188 774.5620727539063 653.7188110351563 778.3482666015625 651.1609497070313 C 782.0986938476563 648.6272583007813 785.6255493164063 645.7174072265625 788.8306884765625 642.5122680664063 C 792.0358276367188 639.3072509765625 794.9456787109375 635.7803955078125 797.4793701171875 632.0300903320313 C 800.0372314453125 628.2439575195313 802.2340698242188 624.196533203125 804.0090942382813 620.000244140625 C 807.7018432617188 611.26953125 809.57421875 601.9945678710938 809.57421875 592.43310546875 L 809.57421875 431.4771118164063 L 809.57421875 431.0381164550781 L 809.8973999023438 430.740966796875 L 1108.7099609375 155.9791259765625 C 1115.817260742188 149.4441223144531 1121.45849609375 141.6831207275391 1125.47705078125 132.9116973876953 C 1127.408935546875 128.6952667236328 1128.947509765625 124.2601165771484 1130.050048828125 119.7295455932617 C 1131.142333984375 115.2414016723633 1131.816650390625 110.6205444335938 1132.053955078125 105.9954071044922 C 1132.291381835938 101.3701171875 1132.093872070313 96.70254516601563 1131.466796875 92.12226104736328 C 1130.833984375 87.49855041503906 1129.757690429688 82.92326354980469 1128.26806640625 78.52340698242188 C 1125.169067382813 69.37040710449219 1120.352783203125 61.04883575439453 1113.953125 53.79026412963867 C 1110.517822265625 49.89411926269531 1106.6806640625 46.38397598266602 1102.548095703125 43.35726165771484 C 1098.526489257813 40.41168975830078 1094.185913085938 37.89454650878906 1089.647094726563 35.8759765625 C 1085.190673828125 33.89397811889648 1080.510375976563 32.37740707397461 1075.736206054688 31.36840438842773 C 1071.000610351563 30.3675479888916 1066.145141601563 29.8601188659668 1061.304443359375 29.8601188659668 C 1052.740234375 29.8601188659668 1044.351684570313 31.41469192504883 1036.371704101563 34.48054885864258 C 1028.109497070313 37.65483474731445 1020.564270019531 42.35012054443359 1013.945556640625 48.43611907958984 L 811.2510986328125 234.8162689208984 L 809.57421875 236.3581237792969 L 809.57421875 234.0801239013672 L 809.57421875 124.1541213989258 C 809.57421875 114.5926895141602 807.7018432617188 105.3176879882813 804.0090942382813 96.58697509765625 C 802.2340698242188 92.39069366455078 800.0372314453125 88.34326171875 797.4793701171875 84.55712127685547 C 794.9456787109375 80.80683135986328 792.0358276367188 77.27997589111328 788.8306884765625 74.07497406005859 C 785.6255493164063 70.86983489990234 782.0986938476563 67.95997619628906 778.3482666015625 65.42626190185547 C 774.5620727539063 62.86840438842773 770.5146484375 60.67154693603516 766.3182373046875 58.89654922485352 C 757.58740234375 55.20383453369141 748.3123779296875 53.33140563964844 738.7506713867188 53.33140563964844 C 729.1892700195313 53.33140563964844 719.9143676757813 55.20383453369141 711.1835327148438 58.89654922485352 C 706.9872436523438 60.67154693603516 702.9398193359375 62.86840438842773 699.1536865234375 65.42626190185547 C 695.4033813476563 67.95997619628906 691.8765258789063 70.86983489990234 688.67138671875 74.07483673095703 C 685.4663696289063 77.27997589111328 682.5565185546875 80.80683135986328 680.0228271484375 84.55712127685547 C 677.4649658203125 88.34326171875 675.2681274414063 92.39069366455078 673.4931030273438 96.58697509765625 C 669.8004150390625 105.3178329467773 667.927978515625 114.5926895141602 667.927978515625 124.1541213989258 L 667.927978515625 592.43310546875 C 667.927978515625 601.9945678710938 669.8004150390625 611.2694091796875 673.4931030273438 620.000244140625 C 675.2681274414063 624.196533203125 677.4649658203125 628.2439575195313 680.0228271484375 632.0300903320313 C 682.5565185546875 635.7803955078125 685.4663696289063 639.3072509765625 688.67138671875 642.5123901367188 C 691.8765258789063 645.7174072265625 695.4033813476563 648.6272583007813 699.1536865234375 651.1609497070313 C 702.9398193359375 653.7188110351563 706.9872436523438 655.9157104492188 711.1835327148438 657.690673828125 C 719.9143676757813 661.3834228515625 729.1892700195313 663.255859375 738.7506713867188 663.255859375 M 509.4449462890625 663.255859375 C 519.21240234375 663.255859375 528.6869506835938 661.3431396484375 537.6056518554688 657.5708618164063 C 541.8923950195313 655.7576904296875 546.0269775390625 653.513427734375 549.89453125 650.9005737304688 C 553.7256469726563 648.312255859375 557.328369140625 645.33984375 560.6023559570313 642.065673828125 C 563.8765258789063 638.7915649414063 566.8489379882813 635.1888427734375 569.437255859375 631.357666015625 C 572.0501098632813 627.4901123046875 574.2942504882813 623.3555297851563 576.1073608398438 619.06884765625 C 579.8795166015625 610.1502685546875 581.792236328125 600.6757202148438 581.792236328125 590.9085693359375 C 581.792236328125 581.14111328125 579.8795166015625 571.6665649414063 576.1073608398438 562.7478637695313 C 574.2942504882813 558.4611206054688 572.0501098632813 554.3265380859375 569.437255859375 550.458984375 C 566.8489379882813 546.6278076171875 563.8765258789063 543.0252685546875 560.6023559570313 539.7510986328125 C 557.328369140625 536.4769897460938 553.7256469726563 533.5045776367188 549.89453125 530.9163818359375 C 546.0269775390625 528.3034057617188 541.8923950195313 526.0592651367188 537.6056518554688 524.2462768554688 C 528.6869506835938 520.4739990234375 519.21240234375 518.561279296875 509.4449462890625 518.561279296875 L 73.34724426269531 518.561279296875 C 63.5799560546875 518.561279296875 54.10523986816406 520.4739990234375 45.18667221069336 524.2462768554688 C 40.89995574951172 526.0592651367188 36.76538467407227 528.3034057617188 32.89781188964844 530.9163818359375 C 29.06666946411133 533.5045776367188 25.46395683288574 536.4769897460938 22.1898136138916 539.7510986328125 C 18.91581344604492 543.0252685546875 15.94338417053223 546.6278076171875 13.35509872436523 550.458984375 C 10.74224185943604 554.3265380859375 8.497956275939941 558.4611206054688 6.684956073760986 562.7478637695313 C 2.912670373916626 571.6665649414063 0.9999560713768005 581.14111328125 0.9999560713768005 590.9085693359375 C 0.9999560713768005 600.6757202148438 2.912670373916626 610.1502685546875 6.684956073760986 619.06884765625 C 8.497956275939941 623.3555297851563 10.74224185943604 627.4901123046875 13.35509872436523 631.357666015625 C 15.94338417053223 635.1888427734375 18.91581344604492 638.7915649414063 22.18995666503906 642.065673828125 C 25.46395683288574 645.33984375 29.06666946411133 648.312255859375 32.89781188964844 650.9005737304688 C 36.76538467407227 653.513427734375 40.89995574951172 655.7576904296875 45.18667221069336 657.5708618164063 C 54.10538482666016 661.3431396484375 63.5799560546875 663.255859375 73.34724426269531 663.255859375 L 509.4449462890625 663.255859375 M 1070.766845703125 649.1447143554688 C 1079.331420898438 649.1438598632813 1087.719970703125 647.5889892578125 1095.699584960938 644.5233764648438 C 1103.96240234375 641.3489990234375 1111.507690429688 636.6536865234375 1118.125854492188 630.5679931640625 C 1125.232788085938 624.032958984375 1130.873901367188 616.27197265625 1134.892333984375 607.5005493164063 C 1136.824096679688 603.2841186523438 1138.362670898438 598.8489990234375 1139.465209960938 594.3184204101563 C 1140.557495117188 589.8302612304688 1141.231689453125 585.2095336914063 1141.468994140625 580.5844116210938 C 1141.706420898438 575.9591064453125 1141.5087890625 571.2915649414063 1140.8818359375 566.71142578125 C 1140.248901367188 562.0877075195313 1139.172729492188 557.5123901367188 1137.682983398438 553.1126708984375 C 1134.583984375 543.959716796875 1129.767822265625 535.6385498046875 1123.367919921875 528.3800048828125 L 960.6428833007813 343.8196716308594 L 855.3654174804688 440.6232299804688 L 1018.118103027344 625.21484375 C 1021.553649902344 629.1109619140625 1025.390869140625 632.62109375 1029.523193359375 635.6478271484375 C 1033.545043945313 638.5936889648438 1037.885498046875 641.11083984375 1042.424194335938 643.1295776367188 C 1046.880615234375 645.11181640625 1051.560913085938 646.6282348632813 1056.335083007813 647.6372680664063 C 1061.07080078125 648.6380004882813 1065.926391601563 649.1451416015625 1070.766845703125 649.1447143554688 M 509.4449462890625 430.6399841308594 C 519.21240234375 430.6399841308594 528.6869506835938 428.7272644042969 537.6056518554688 424.9549865722656 C 541.8923950195313 423.1419677734375 546.0269775390625 420.8978271484375 549.89453125 418.2848205566406 C 553.7256469726563 415.6966857910156 557.328369140625 412.7242736816406 560.6023559570313 409.4501342773438 C 563.8765258789063 406.1759643554688 566.8489379882813 402.5733947753906 569.437255859375 398.7422485351563 C 572.0501098632813 394.8746948242188 574.2942504882813 390.7401123046875 576.1073608398438 386.4533996582031 C 579.8795166015625 377.5346984863281 581.792236328125 368.0601196289063 581.792236328125 358.2926940917969 C 581.792236328125 348.5255432128906 579.8795166015625 339.0511169433594 576.1073608398438 330.1325378417969 C 574.2942504882813 325.8458251953125 572.0501098632813 321.7113952636719 569.437255859375 317.8438415527344 C 566.8489379882813 314.0126953125 563.8765258789063 310.4101257324219 560.6023559570313 307.135986328125 C 557.328369140625 303.8619689941406 553.7256469726563 300.8895568847656 549.89453125 298.30126953125 C 546.0269775390625 295.6884155273438 541.8923950195313 293.4442749023438 537.6056518554688 291.6311340332031 C 528.6869506835938 287.8589782714844 519.21240234375 285.9462585449219 509.4449462890625 285.9462585449219 L 73.34724426269531 285.9462585449219 C 63.5799560546875 285.9462585449219 54.10523986816406 287.8589782714844 45.18667221069336 291.6311340332031 C 40.89995574951172 293.4442749023438 36.76538467407227 295.6884155273438 32.89781188964844 298.30126953125 C 29.06666946411133 300.8895568847656 25.46395683288574 303.8619689941406 22.1898136138916 307.135986328125 C 18.91581344604492 310.4101257324219 15.94338417053223 314.0126953125 13.35509872436523 317.8438415527344 C 10.74224185943604 321.7113952636719 8.497956275939941 325.8458251953125 6.684956073760986 330.1325378417969 C 2.912670373916626 339.0511169433594 0.9999560713768005 348.5255432128906 0.9999560713768005 358.2926940917969 C 0.9999560713768005 368.0601196289063 2.912670373916626 377.5346984863281 6.684956073760986 386.4533996582031 C 8.497956275939941 390.7401123046875 10.74224185943604 394.8746948242188 13.35509872436523 398.7422485351563 C 15.94338417053223 402.5733947753906 18.91581344604492 406.1759643554688 22.1898136138916 409.4501342773438 C 25.46395683288574 412.7242736816406 29.06666946411133 415.6966857910156 32.89781188964844 418.2848205566406 C 36.76538467407227 420.8978271484375 40.89995574951172 423.1419677734375 45.18667221069336 424.9549865722656 C 54.10523986816406 428.7272644042969 63.5799560546875 430.6399841308594 73.34724426269531 430.6399841308594 L 509.4449462890625 430.6399841308594 M 509.4449462890625 198.0251159667969 C 519.21240234375 198.0251159667969 528.6869506835938 196.1124114990234 537.6056518554688 192.3401184082031 C 541.8923950195313 190.5269775390625 546.0269775390625 188.2826843261719 549.89453125 185.6698303222656 C 553.7256469726563 183.08154296875 557.328369140625 180.1091156005859 560.6023559570313 176.8349761962891 C 563.8765258789063 173.5608367919922 566.8489379882813 169.9581146240234 569.437255859375 166.1269836425781 C 572.0501098632813 162.2593994140625 574.2942504882813 158.1248321533203 576.1073608398438 153.8381195068359 C 579.8795166015625 144.9195556640625 581.792236328125 135.4449768066406 581.792236328125 125.6778335571289 C 581.792236328125 115.9104080200195 579.8795166015625 106.4358367919922 576.1073608398438 97.51712036132813 C 574.2942504882813 93.23040771484375 572.0501098632813 89.09583282470703 569.437255859375 85.22826385498047 C 566.8489379882813 81.39711761474609 563.8765258789063 77.79454803466797 560.6023559570313 74.52040863037109 C 557.328369140625 71.24626159667969 553.7256469726563 68.27383422851563 549.89453125 65.68569183349609 C 546.0269775390625 63.07269287109375 541.8923950195313 60.82854843139648 537.6056518554688 59.01554870605469 C 528.6869506835938 55.24326324462891 519.21240234375 53.33054733276367 509.4449462890625 53.33054733276367 L 73.34724426269531 53.33054733276367 C 63.5799560546875 53.33054733276367 54.10523986816406 55.24326324462891 45.18667221069336 59.01554870605469 C 40.89995574951172 60.82854843139648 36.76538467407227 63.07269287109375 32.89781188964844 65.68569183349609 C 29.06666946411133 68.27383422851563 25.46395683288574 71.24626159667969 22.1898136138916 74.52040863037109 C 18.91581344604492 77.79454803466797 15.94338417053223 81.39711761474609 13.35509872436523 85.22826385498047 C 10.74224185943604 89.09583282470703 8.497956275939941 93.23040771484375 6.684956073760986 97.51712036132813 C 2.912670373916626 106.4358367919922 0.9999560713768005 115.9104080200195 0.9999560713768005 125.6778335571289 C 0.9999560713768005 135.4449768066406 2.912670373916626 144.9195556640625 6.684956073760986 153.8381195068359 C 8.497956275939941 158.1248321533203 10.74224185943604 162.2593994140625 13.35509872436523 166.1269836425781 C 15.94338417053223 169.9581146240234 18.91581344604492 173.5608367919922 22.18995666503906 176.8349761962891 C 25.46395683288574 180.1091156005859 29.06666946411133 183.08154296875 32.89781188964844 185.6698303222656 C 36.76538467407227 188.2826843261719 40.89995574951172 190.5269775390625 45.18667221069336 192.3401184082031 C 54.10538482666016 196.1124114990234 63.5799560546875 198.0251159667969 73.34724426269531 198.0251159667969 L 509.4449462890625 198.0251159667969 M 738.7506713867188 664.255859375 C 699.0841064453125 664.255859375 666.927978515625 632.0996704101563 666.927978515625 592.43310546875 L 666.927978515625 124.1541213989258 C 666.927978515625 84.487548828125 699.0841064453125 52.33140563964844 738.7506713867188 52.33140563964844 C 778.4180908203125 52.33140563964844 810.57421875 84.487548828125 810.57421875 124.1541213989258 L 810.57421875 234.0801239013672 L 1013.268676757813 47.69997787475586 C 1026.994995117188 35.0787467956543 1044.18212890625 28.86008262634277 1061.304321289063 28.86008262634277 C 1080.953735351563 28.86008262634277 1100.51953125 37.0428352355957 1114.703125 53.12883377075195 C 1141.244995117188 83.23297882080078 1138.865478515625 129.6099700927734 1109.386840820313 156.7152557373047 L 810.57421875 431.4771118164063 L 810.57421875 592.43310546875 C 810.57421875 632.0996704101563 778.4180908203125 664.255859375 738.7506713867188 664.255859375 Z M 509.4449462890625 664.255859375 L 73.34724426269531 664.255859375 C 32.83838272094727 664.255859375 -4.394531424622983e-05 631.4166870117188 -4.394531424622983e-05 590.9085693359375 C -4.394531424622983e-05 550.3995361328125 32.83838272094727 517.561279296875 73.34724426269531 517.561279296875 L 509.4449462890625 517.561279296875 C 549.9541015625 517.561279296875 582.792236328125 550.3995361328125 582.792236328125 590.9085693359375 C 582.792236328125 631.4166870117188 549.9541015625 664.255859375 509.4449462890625 664.255859375 Z M 1070.766967773438 650.1447143554688 C 1051.1171875 650.1465454101563 1031.552124023438 641.9619750976563 1017.368103027344 625.8762817382813 L 853.9676513671875 440.5499877929688 L 960.7176513671875 342.3923950195313 L 1124.118041992188 527.7186889648438 C 1150.659912109375 557.8218383789063 1148.2802734375 604.1988525390625 1118.802612304688 631.3041381835938 C 1105.076782226563 643.9257202148438 1087.888549804688 650.1430053710938 1070.766967773438 650.1447143554688 Z M 509.4449462890625 431.6399841308594 L 73.34724426269531 431.6399841308594 C 32.83838272094727 431.6399841308594 -4.394531424622983e-05 398.8016967773438 -4.394531424622983e-05 358.2926940917969 C -4.394531424622983e-05 317.7845458984375 32.83838272094727 284.9462585449219 73.34724426269531 284.9462585449219 L 509.4449462890625 284.9462585449219 C 549.9541015625 284.9462585449219 582.792236328125 317.7845458984375 582.792236328125 358.2926940917969 C 582.792236328125 398.8016967773438 549.9541015625 431.6399841308594 509.4449462890625 431.6399841308594 Z M 509.4449462890625 199.0251159667969 L 73.34724426269531 199.0251159667969 C 32.83838272094727 199.0251159667969 -4.394531424622983e-05 166.1859741210938 -4.394531424622983e-05 125.6778335571289 C -4.394531424622983e-05 85.16883087158203 32.83838272094727 52.33054733276367 73.34724426269531 52.33054733276367 L 509.4449462890625 52.33054733276367 C 549.9541015625 52.33054733276367 582.792236328125 85.16883087158203 582.792236328125 125.6778335571289 C 582.792236328125 166.1859741210938 549.9541015625 199.0251159667969 509.4449462890625 199.0251159667969 Z" stroke="none" fill="rgba(112,112,112,0)"/>
  </g>
</svg>
